<svg xmlns="http://www.w3.org/2000/svg" width="512" height="512" viewBox="0 0 512 512">
  <defs>
    <linearGradient id="bg" x1="62" y1="36" x2="450" y2="482" gradientUnits="userSpaceOnUse">
      <stop offset="0" stop-color="#071426"/>
      <stop offset=".52" stop-color="#0b1f3d"/>
      <stop offset="1" stop-color="#050816"/>
    </linearGradient>
    <linearGradient id="stroke" x1="90" y1="55" x2="420" y2="455" gradientUnits="userSpaceOnUse">
      <stop offset="0" stop-color="#67e8f9"/>
      <stop offset=".45" stop-color="#38bdf8"/>
      <stop offset="1" stop-color="#8b5cf6"/>
    </linearGradient>
    <linearGradient id="sgrad" x1="130" y1="100" x2="395" y2="400" gradientUnits="userSpaceOnUse">
      <stop offset="0" stop-color="#f8fafc"/>
      <stop offset=".36" stop-color="#67e8f9"/>
      <stop offset=".72" stop-color="#60a5fa"/>
      <stop offset="1" stop-color="#a78bfa"/>
    </linearGradient>
    <filter id="glow" x="-40%" y="-40%" width="180%" height="180%">
      <feGaussianBlur stdDeviation="12" result="b"/>
      <feMerge><feMergeNode in="b"/><feMergeNode in="SourceGraphic"/></feMerge>
    </filter>
  </defs>
  <rect x="30" y="30" width="452" height="452" rx="112" fill="url(#bg)" stroke="url(#stroke)" stroke-width="12"/>
  <path d="M132 337C184 410 322 410 374 322" fill="none" stroke="url(#stroke)" stroke-width="18" stroke-linecap="round" opacity=".65" filter="url(#glow)"/>
  <path d="M167 313C212 358 301 357 345 300" fill="none" stroke="#67e8f9" stroke-width="10" stroke-linecap="round" opacity=".55"/>
  <path d="M343 159C318 128 271 112 228 125C183 138 153 170 154 208C155 251 196 266 242 274C291 283 318 291 319 319C320 344 295 361 260 363C219 365 180 347 156 315" fill="none" stroke="url(#sgrad)" stroke-width="52" stroke-linecap="round" stroke-linejoin="round" filter="url(#glow)"/>
  <circle cx="382" cy="140" r="9" fill="#67e8f9"/>
  <circle cx="110" cy="374" r="7" fill="#8b5cf6"/>
</svg>